<?xml version="1.0" encoding="UTF-8" standalone="no"?>
<svg
   xmlns:dc="http://purl.org/dc/elements/1.1/"
   xmlns:cc="http://creativecommons.org/ns#"
   xmlns:rdf="http://www.w3.org/1999/02/22-rdf-syntax-ns#"
   xmlns:svg="http://www.w3.org/2000/svg"
   xmlns="http://www.w3.org/2000/svg"
   xmlns:sodipodi="http://sodipodi.sourceforge.net/DTD/sodipodi-0.dtd"
   xmlns:inkscape="http://www.inkscape.org/namespaces/inkscape"
   role="img"
   viewBox="-35.15 -42.65 1137.558 1137.5579"
   version="1.1"
   id="svg3097"
   sodipodi:docname="portainer-logo.svg"
   width="1137.558"
   height="1137.558"
   inkscape:version="0.92.5 (2060ec1f9f, 2020-04-08)">
  <metadata
     id="metadata3103">
    <rdf:RDF>
      <cc:Work
         rdf:about="">
        <dc:format>image/svg+xml</dc:format>
        <dc:type
           rdf:resource="http://purl.org/dc/dcmitype/StillImage" />
        <dc:title>Portainer logo</dc:title>
      </cc:Work>
    </rdf:RDF>
  </metadata>
  <defs
     id="defs3101" />
  <sodipodi:namedview
     pagecolor="#ffffff"
     bordercolor="#666666"
     borderopacity="1"
     objecttolerance="10"
     gridtolerance="10"
     guidetolerance="10"
     inkscape:pageopacity="0"
     inkscape:pageshadow="2"
     inkscape:window-width="1920"
     inkscape:window-height="1043"
     id="namedview3099"
     showgrid="false"
     inkscape:zoom="0.34375154"
     inkscape:cx="603.19618"
     inkscape:cy="-40.589083"
     inkscape:window-x="0"
     inkscape:window-y="0"
     inkscape:window-maximized="1"
     inkscape:current-layer="svg3097"
     inkscape:document-rotation="0"
     inkscape:snap-bbox="true"
     inkscape:bbox-paths="true"
     inkscape:bbox-nodes="true"
     inkscape:snap-bbox-edge-midpoints="true"
     inkscape:snap-bbox-midpoints="true"
     inkscape:snap-intersection-paths="true"
     inkscape:object-paths="true"
     inkscape:snap-smooth-nodes="true"
     inkscape:snap-midpoints="true"
     inkscape:snap-object-midpoints="true"
     inkscape:snap-center="true"
     inkscape:snap-text-baseline="true" />
  <title
     id="title3065">Portainer logo</title>
  <style
     id="style3067">svg {enable-background:new 0 0 3960 1208}</style>
  <style
     id="style3069">.st16{fill:#38d9fe}.st17{fill:#39d9fe}.st18{fill:#3adafe}</style>
  <g
     id="g29"
     transform="translate(220.54069,1.2871094e-5)">
    <path
       style="fill:#38d9fe"
       inkscape:connector-curvature="0"
       id="path3071"
       class="st16"
       d="m 375.8869,22.549997 c -82.6,48.1 -165.6,95.500003 -248.1,143.800003 -14,8.2 -28.5,12.4 -44.7,12.2 -28.3,-0.4 -56.6,-0.1 -84.8999992,-0.1 -5,0 -10.1000008,-0.1 -15.1000008,0.3 -6.9,0.6 -12.3,2.9 -12.6,11.1 -0.3,8.2 4.8,10.9 11.9,11.5 5.6,0.5 11.3000008,0.4 17.00000088,0.4 64.19999912,0 128.29999912,-0.1 192.49999912,0.1 9.2,0 19.3,-2.1 26.9,5.5 6.2,0 12.3,0.1 18.5,0.1 h 54.8 c 6,0 12,0 18,-0.1 0.1,-0.2 0.2,-0.3 0.3,-0.5 25.5,-10.7 51.8,-5.5 77.9,-3.5 8,0.6 10.6,8 11.7,15.3 1.2,8.1 0.9,16.3 0.9,24.5 v 421.2 c 0,6.9 -0.3,13.9 0.7,20.7 1,6.5 4.6,10.1 11.3,10.4 7.6,0.3 9.5,-4.7 9.9,-10.9 0.5,-6.3 0.3,-12.6 0.3,-18.9 v -421.2 c 0,-8.8 -0.6,-17.7 1.4,-26.3 2.5,-10.9 9.7,-15.7 20.6,-15.2 10.1,0.5 14.1,7 15.3,16 1.1,8.1 0.8,16.3 0.8,24.5 v 438.2 c 0,12.7 -0.7,25.5 12.6,33.3 7.7,4.5 13,5.5 13.4,-5.9 0.2,-5.7 0.1,-11.3 0.1,-17 v -445.7 c 0,-5 -0.1,-10.1 0.1,-15.1 0.6,-25.7 4.1,-29.7 29.8,-29.8 74.9,-0.4 149.8,0.2 224.7,-0.5 9.6,-0.1 26.7,6.4 26.4,-11.3 -0.3,-15.6 -16.3,-10.1 -25.7,-10.3 -16.8,-0.4 -32.3,-3.6 -46.9,-12.1 -82.6,-48.3 -165.5,-96.000003 -248.4,-143.800003 -26,-15.0000004 -31.8,-37.1 -18.3,-65.7 h -34 c 13,28.8 6.8,49.6999996 -19.1,64.8 z m 5.6,150.200003 c -65.9,-0.1 -131.7,0 -197.6,0 -0.3,-1.1 -0.6,-2.3 -0.9,-3.4 69.7,-40.3 139.5,-80.700003 211.9,-122.600003 0,40.9 -0.2,78.400003 0.1,115.900003 0.2,10.6 -6.3,10.1 -13.5,10.1 z m 48.6,-124.900003 c 71.7,41.4 140.9,81.400003 210.1,121.300003 -0.1,1.2 -0.2,2.4 -0.4,3.5 -65.7,0 -131.4,-0.2 -197.1,0.2 -10.4,0.1 -12.8,-4.7 -12.7,-13.7 0.2,-35.7 0.1,-71.400003 0.1,-111.300003 z" />
    <path
       style="fill:#38d9fe"
       inkscape:connector-curvature="0"
       id="path3073"
       class="st16"
       d="m 447.2869,23.249997 c 82.9,47.8 165.8,95.500003 248.4,143.800003 14.6,8.5 30.1,11.8 46.9,12.1 9.5,0.2 25.5,-5.3 25.7,10.3 0.3,17.7 -16.8,11.2 -26.4,11.3 -74.9,0.7 -149.8,0.1 -224.7,0.5 -25.7,0.1 -29.2,4.1 -29.8,29.8 -0.1,5 -0.1,10.1 -0.1,15.1 v 445.7 c 0,5.7 0,11.3 -0.1,17 -0.4,11.4 -5.7,10.4 -13.4,5.9 -13.3,-7.8 -12.6,-20.6 -12.6,-33.3 v -438.2 c 0,-8.2 0.3,-16.4 -0.8,-24.5 -1.2,-9.1 -5.3,-15.6 -15.3,-16 -10.9,-0.5 -18.2,4.3 -20.6,15.2 -2,8.7 -1.4,17.5 -1.4,26.3 v 421.2 c 0,6.3 0.2,12.6 -0.3,18.9 -0.5,6.2 -2.3,11.2 -9.9,10.9 -6.7,-0.3 -10.3,-3.9 -11.3,-10.4 -1.1,-6.9 -0.7,-13.8 -0.7,-20.7 v -421.2 c 0,-8.2 0.3,-16.4 -0.9,-24.5 -1.1,-7.3 -3.7,-14.6 -11.7,-15.3 -26,-2 -52.4,-7.1 -77.9,3.5 -0.1,0.2 -0.2,0.3 -0.3,0.5 h 2.6 c 20.8,0.1 41.6,1.6 62.3,0 17.6,-1.4 20.4,5.4 20.4,21.3 -0.6,151.7 0.2,303.4 -0.9,455.1 -0.2,24.3 15.1,17.9 26.8,19 17.2,1.7 8.5,-12.4 8.5,-18.4 0.6,-149.8 0.4,-299.6 0.4,-449.4 0,-5 0.2,-10.1 0,-15.1 -0.4,-8.9 3.9,-11.6 12.5,-12.3 15.9,-1.2 13.1,9.4 13.1,18.6 v 455.1 c 0,32.9 2,35.8 36.6,50.2 v -21 c 0,-159.9 0.4,-319.8 -0.5,-479.6 -0.1,-20 5.9,-23.7 24.3,-23.5 79.9,1 159.9,0.2 239.8,0.6 13.4,0.1 21.5,-0.1 21.7,-18.1 0.2,-19.6 -10.5,-17.2 -22.5,-17.1 -20,0.2 -39,0.3 -57.9,-11 -74.4,-44.6 -149,-89.200003 -225.4,-130.300003 -30.5,-16.4 -49.5,-33.8000004 -42,-70.2 0.2,-1.1 -0.5,-2.4 -0.8,-3.7 -13.6,28.8 -7.8,50.8999996 18.2,65.9 z m -52.2,-31.8000004 c 0.7,10 -2.7,15.7 -11.7,20.9000004 -88.9,50.9 -177.5,102.200003 -266,153.700003 -8.5,5 -17.1,6.9 -26.8,6.8 -37.1,-0.3 -74.2,0.5 -111.3,-0.4 -14.5,-0.4 -14.6,7.2 -14.4,17.5 0.2,9.9 -1,18.2 14,18.1 79.2,-0.7 158.5,-0.6 237.7,-0.7 h 2.1 c -7.6,-7.6 -17.7,-5.5 -26.9,-5.5 -64.2,-0.3 -128.3,-0.1 -192.49999912,-0.1 -5.70000008,0 -11.30000088,0.2 -17.00000088,-0.4 -7.1,-0.6 -12.1,-3.3 -11.9,-11.5 0.3,-8.1 5.6,-10.5 12.6,-11.1 5,-0.4 10.1000008,-0.3 15.1000008,-0.3 28.2999992,0 56.5999992,-0.3 84.8999992,0.1 16.3,0.2 30.7,-4 44.7,-12.2 82.5,-48.3 165.6,-95.600003 248.1,-143.800003 25.9,-15.1000004 32.1,-36 19.1,-65 0,11.3 -0.6,22.7 0.2,33.8999996 z M 516.1869,866.05 c 10.6,-50.6 -4.9,-92.7 -45.5,-123.5 -38.8,-29.4 -82.2,-33 -126.2,-11.1 -11,5.5 -17.6,4.6 -26.2,-3.4 -22.1,-20.6 -48.5,-30.9 -74.1,-30.6 -55.9,-0.9 -100.4,29.1 -118.3,77.7 -3.9,10.6 -8.7,13.8 -20.1,14.2 -70.3,2.3 -121.7,57.7 -119,126.9 2.6,66.5 58.8,117.4 127.4,114.1 13.9,-0.7 21,3.9 28.9,14.7 45.9,62.4 133.9,66.9 185.3,9.7 8.2,-9.2 13.3,-8.7 23.2,-2.4 47.6,30.3 107.7,23.9 147.9,-14.5 40.2,-38.4 48.8,-99.4 20.1,-148.8 -4.5,-7.8 -5.1,-14.7 -3.4,-23 z" />
    <path
       sodipodi:nodetypes="ccccccscccc"
       style="fill:#38d9fe"
       inkscape:connector-curvature="0"
       id="path3075"
       class="st16"
       d="m 94.9869,771.25 c 7.1,-2.2 12.4,-2.7 15,-10.6 30.3,-89.8 144.2,-101.1 201,-60.3 11.1,8 14.9,4.9 17.8,-6.2 12,-45.7 12,-90.5 -8.2,-134.3 -4.6,-10 -10.4,-13.6 -21.4,-13.4 -45.9,0.6 -91.8,0.3 -137.8,0.3 -45.3,0 -90.6,0.5 -135.9,-0.3 -12,-0.2 -18.1999992,4 -22.6999992,14.6 C -22.5131,621.35 -17.7131,678.95 18.0869,733.55 c 17.8,27.3 38.4,50 76.9,37.7 z" />
    <path
       style="fill:#3adafe"
       inkscape:connector-curvature="0"
       id="path3083"
       class="st18"
       d="m 292.4869,212.35 h -0.4 c 0.6,20.9 2.3,41.8 0.6,62.5 -2,24.7 -22.3,9.2 -33.9,11.5 -7.6,1.5 -23.2,8.1 -22.7,-11.4 0.5,-20.9 0.7,-41.8 1,-62.6 h -0.4 c -5.8,0.3 -11.4,-0.2 -16.4,-2.8 4.7,11.7 2.8,24.1 2.9,36.2 0.3,35.8 -0.1,71.6 0.2,107.5 0.2,19.6 2.2,21.4 21.8,21.6 13.8,0.2 27.7,-0.4 41.5,0.1 14.6,0.5 20,-5.5 19.8,-20.1 -0.5,-40.2 -0.9,-80.4 -0.5,-120.6 0.1,-8.3 -0.8,-16.8 2.8,-24.6 -5,2.5 -10.6,3 -16.3,2.7 z m -45.1,145.6 c 0,4.7 -1.1,9.2 -6.9,8.9 -5.4,-0.2 -7.1,-4.4 -7.1,-9.2 0,-15.7 -0.1,-31.3 0.2,-47 0.1,-4.4 1.4,-9.1 7.3,-9 6,0.1 6.5,4.8 6.6,9.3 0.1,8.1 0,16.3 0,24.4 -0.1,7.6 -0.1,15.1 -0.1,22.6 z m 26.2,-22.8 v 22.7 c 0,4.7 -1.2,9.3 -6.8,9.6 -5.7,0.3 -7.3,-4.1 -7.3,-8.9 -0.1,-15.7 -0.1,-31.5 0.1,-47.2 0.1,-4.6 1.2,-9.3 6.9,-9.5 7.4,-0.2 7,5.8 7.2,10.7 0.1,7.5 -0.1,15 -0.1,22.6 z m 25.6,-26.5 c 0.4,8.7 0.1,17.5 0.1,26.3 h 0.4 v 22.5 c 0,4.8 -1.5,9 -7,9.4 -6,0.5 -7.1,-4 -7.1,-8.7 -0.1,-16.3 -0.1,-32.6 0.1,-48.8 0,-4 1.6,-7.5 6.3,-7.7 4.7,-0.2 7,3.1 7.2,7 z" />
    <path
       style="fill:#3adafe"
       inkscape:connector-curvature="0"
       id="path3085"
       class="st18"
       d="m 305.8869,234.25 c -0.4,40.2 -0.1,80.4 0.5,120.6 0.2,14.6 -5.2,20.7 -19.8,20.1 -13.8,-0.5 -27.6,0 -41.5,-0.1 -19.6,-0.2 -21.6,-2 -21.8,-21.6 -0.3,-35.8 0.1,-71.6 -0.2,-107.5 -0.1,-12.1 1.8,-24.5 -2.9,-36.2 -1.3,-0.7 -2.5,-1.4 -3.8,-2.4 0.6,6.8 1.6,13.7 1.7,20.5 0.2,44.6 0.6,89.3 -0.2,133.9 -0.3,14.2 2.6,20.6 18.5,19.3 18.8,-1.5 37.8,-1.4 56.5,0 15.6,1.2 18.7,-4.9 18.6,-19.2 -0.4,-51.5 0.6,-103 1.1,-154.5 -1.3,1 -2.6,1.7 -3.9,2.4 -3.6,7.9 -2.7,16.4 -2.8,24.7 z" />
    <path
       style="fill:#3adafe"
       inkscape:connector-curvature="0"
       id="path3087"
       class="st18"
       d="m 292.4869,212.35 c 5.7,0.3 11.2,-0.3 16.2,-2.7 0.4,-0.8 0.8,-1.6 1.3,-2.4 -6,0 -12,0 -18,0.1 0,1.7 0.1,3.4 0.1,5 0.2,0.1 0.3,0.1 0.4,0 z m -72.2,-2.7 c 5.1,2.6 10.6,3.1 16.4,2.8 h 0.4 c 0,-1.7 0,-3.3 0.1,-5 -6.2,0 -12.3,-0.1 -18.5,-0.1 0.4,0.4 0.8,0.8 1.2,1.3 0.1,0.3 0.3,0.6 0.4,1 z" />
    <path
       style="fill:#3adafe"
       inkscape:connector-curvature="0"
       id="path3089"
       class="st18"
       d="m 219.8869,208.55 c -0.4,-0.5 -0.8,-0.9 -1.2,-1.3 h -2.1 c 1.2,0.9 2.5,1.7 3.8,2.4 -0.2,-0.4 -0.4,-0.7 -0.5,-1.1 z m 90.2,-1.2 c -0.5,0.8 -0.9,1.6 -1.3,2.4 1.3,-0.7 2.6,-1.4 3.9,-2.4 z" />
    <path
       style="fill:#39d9fe"
       inkscape:connector-curvature="0"
       id="path3091"
       class="st17"
       d="m 115.5869,486.75 c 0,45.7 0,45.7 45.8,45.7 45.7,0 45.7,0 45.7,-46 0,-45.7 0,-45.7 -46,-45.7 -45.5,0 -45.5,0 -45.5,46 z m 28.6,26.2 c -0.1,4 -3,7.2 -7.5,6.5 -3.3,-0.5 -5.6,-3.2 -5.7,-6.6 -0.2,-8.8 -0.1,-17.6 -0.1,-26.3 h -0.2 c 0,-8.2 -0.1,-16.3 0,-24.5 0.1,-4.1 1.7,-7.7 6,-8.4 4.6,-0.8 7.4,2.7 7.4,6.6 0.4,17.6 0.4,35.2 0.1,52.7 z m 39.1,-50.7 c 0,-3.9 0.7,-8.1 5.4,-8.4 6.4,-0.5 6.4,4.7 6.5,9 0.2,8.1 0.1,16.2 0.1,24.3 0,7.5 0.2,15 0,22.5 -0.1,4.2 0.3,9.9 -6,9.4 -5.5,-0.4 -6,-5.5 -6,-10 z m -18.8,-8.1 c 4.9,0.6 4.5,5.3 4.6,8.8 0.2,8.1 0.1,16.2 0.1,24.3 0,7.5 0.2,15 0,22.4 -0.1,4.2 0.2,9.7 -6,9.5 -4.2,-0.2 -6,-4 -6,-8.1 0,-16.2 -0.1,-32.4 0,-48.6 0,-4.6 1.5,-9 7.3,-8.3 z m -106,-24.1 c 45.4,0 45.4,0 45.4,-46 0,-45.9 0,-45.9 -45.7,-45.9 -45.6,0 -45.6,0 -45.6,46.2 0.1,45.7 0.1,45.7 45.9,45.7 z m 20.7,-72.6 c 0.1,-4.1 3.1,-7 7.7,-6.4 4.7,0.6 5.6,4.5 5.6,8.5 0.1,8.2 0,16.4 0,24.6 v 24.6 c 0,4.2 -1.8,7.6 -6,8.3 -4.5,0.7 -7.4,-2.7 -7.5,-6.6 -0.3,-17.8 -0.2,-35.4 0.2,-53 z m -25,1.6 c 0,-3.8 0.9,-8 5.9,-7.8 4.7,0.2 5.8,4.1 5.9,8.1 0.1,8.2 0,16.4 0,24.5 v 24.5 c 0,4.2 -1.6,7.9 -6.1,7.9 -4.6,0 -5.8,-4.1 -5.8,-8.1 0,-16.4 -0.1,-32.7 0.1,-49.1 z m -26.1,-1 c 0,-3.2 1.1,-6.4 5.1,-6.7 5,-0.4 6.4,3.2 6.5,7.2 0.2,8.2 0.1,16.3 0.1,24.5 h 0.1 v 24.5 c 0,4 -0.6,8 -5.3,8.6 -4.8,0.6 -6.4,-3.2 -6.4,-7.2 -0.2,-17 -0.3,-34 -0.1,-50.9 z m 30.3,82.7 c -45.8,0 -45.8,0 -45.8,45.9 0,45.9 0,45.9 45.7,45.9 45.6,0 45.6,0 45.6,-45.8 0.1,-46 0.1,-46 -45.5,-46 z m -18.7,71.9 c 0,3.3 -1.5,6.3 -5.2,6.7 -5,0.5 -6.4,-3.2 -6.5,-7.1 -0.2,-9.4 -0.1,-18.8 -0.1,-28.2 0,-7.5 -0.1,-15 0,-22.6 0.1,-3.9 1.1,-8 6,-7.8 4.7,0.2 5.7,4.2 5.8,8.2 0.1,16.9 0.1,33.9 0,50.8 z m 26.3,-1.8 c 0,4.1 -1.4,7.7 -5.8,8.3 -5.2,0.7 -6.1,-3.6 -6.1,-7.3 -0.2,-16.8 -0.2,-33.6 0,-50.5 0,-3.7 0.9,-8.1 6,-7.5 4.3,0.5 5.8,4.2 5.8,8.3 v 24.3 c 0,8.1 0.2,16.3 0.1,24.4 z m 26.4,0.4 c -0.1,4.1 -1.8,7.6 -6.1,8.2 -4.6,0.6 -7.3,-2.9 -7.3,-6.8 -0.3,-17.5 -0.2,-35.1 0.1,-52.6 0.1,-3.2 2.2,-6 5.8,-6.4 4.6,-0.4 7.1,2.8 7.3,6.8 0.4,9.4 0.1,18.8 0.1,28.2 h 0.2 c -0.1,7.6 0,15.1 -0.1,22.6 z m 68.4,-81.2 c 46.3,0 46.3,0 46.3,-47.2 0,-44.7 0,-44.7 -43.5,-44.7 -48,0 -48,0 -48,47.5 0,44.4 0,44.4 45.2,44.4 z m 22.6,-72 c 0,-3.3 1.4,-6.3 5.2,-6.7 5.2,-0.6 6.4,3.2 6.5,7.1 0.2,8.2 0.1,16.3 0.1,24.5 0,8.8 0.1,17.6 -0.1,26.4 0,3.4 -1.4,6.5 -5.1,6.8 -4.7,0.3 -6.5,-2.9 -6.5,-7.2 -0.2,-16.9 -0.2,-33.9 -0.1,-50.9 z m -26.2,-0.1 c 0,-3.3 1.6,-6.2 5.2,-6.7 5.1,-0.7 6.4,3.1 6.5,7 0.3,8.7 0.1,17.5 0.1,26.2 0,8.1 0.1,16.2 0,24.4 -0.1,3.9 -1.1,8.1 -5.9,7.8 -4.2,-0.3 -6.1,-3.8 -6.1,-8.1 0.1,-16.9 0,-33.7 0.2,-50.6 z m -26.5,0.6 c 0.1,-4 1.7,-7.5 6.5,-7.6 4.8,-0.1 6.9,3.5 7,7.3 0.4,17 0.4,34 0.2,51 0,4 -2.2,7.6 -6.7,7.6 -5.6,-0.1 -7.1,-4.4 -7.1,-9.2 -0.1,-8.2 0,-16.4 0,-24.6 0.1,-8.1 -0.1,-16.3 0.1,-24.5 z" />
    <path
       style="fill:#3ad9fe"
       inkscape:connector-curvature="0"
       id="path3093"
       d="m 265.4869,532.45 c 45.8,0 45.8,0 45.8,-46.1 0,-45.7 0,-45.7 -46.2,-45.7 h -1.9 c -44.9,0 -44.9,0 -44.9,45.2 0,46.6 0,46.6 47.2,46.6 z m 20.4,-71.3 c 0.1,-3.9 2.2,-7.4 6.8,-7.5 4.7,0 6.6,3.7 6.8,7.5 0.4,8.8 0.1,17.6 0.1,26.3 0,8.2 0.3,16.3 -0.1,24.5 -0.2,3.8 -2.2,7.5 -6.8,7.5 -4.5,-0.1 -6.7,-3.5 -6.8,-7.5 -0.3,-16.9 -0.3,-33.8 0,-50.8 z m -26.2,0.2 c 0.1,-3.9 2.1,-7.5 6.6,-7.7 4.6,-0.2 6.8,3.4 7,7.3 0.4,8.1 0.1,16.3 0.1,24.5 0,8.8 0.2,17.6 -0.1,26.4 -0.1,4 -2.2,7.5 -6.6,7.7 -4.6,0.2 -6.9,-3.5 -7,-7.3 -0.3,-17 -0.3,-33.9 0,-50.9 z m -26.2,1.4 c 0.1,-4.5 1.5,-9.3 7.2,-9 5.6,0.3 6.6,4.9 6.6,9.6 0.1,8.2 0,16.3 0,24.5 0,6.9 0.1,13.8 0,20.7 -0.1,5.1 -0.4,10.9 -7.3,10.8 -5.6,0 -6.7,-5 -6.7,-9.5 0,-15.7 -0.1,-31.4 0.2,-47.1 z" />
  </g>
</svg>
